<?xml version="1.0" standalone="no"?>
<!DOCTYPE svg PUBLIC "-//W3C//DTD SVG 20010904//EN"
 "http://www.w3.org/TR/2001/REC-SVG-20010904/DTD/svg10.dtd">
<svg version="1.0" xmlns="http://www.w3.org/2000/svg"
 width="626.000000pt" height="626.000000pt" viewBox="0 0 626.000000 626.000000"
 preserveAspectRatio="xMidYMid meet">
<metadata>
Created by potrace 1.16, written by Peter Selinger 2001-2019
</metadata>
<g transform="translate(0.000000,626.000000) scale(0.100000,-0.100000)"
fill="#ffffff" stroke="none">
<path d="M2567 4520 c-20 -10 -59 -39 -85 -64 -65 -62 -89 -83 -147 -126 -56
-42 -180 -110 -200 -110 -25 0 -116 -53 -141 -82 -13 -16 -24 -38 -24 -48 0
-22 31 -93 43 -98 4 -2 7 -8 7 -13 0 -5 17 -35 38 -67 47 -72 164 -195 267
-281 44 -36 94 -78 110 -92 17 -15 56 -49 89 -77 32 -28 90 -86 128 -129 39
-43 98 -106 132 -139 l61 -62 -40 -5 c-22 -3 -87 -13 -145 -22 -161 -26 -359
-30 -466 -11 -207 38 -293 110 -257 216 30 89 106 176 233 271 118 88 108 76
81 99 -29 25 -32 25 -58 1 -11 -10 -33 -26 -49 -34 -47 -24 -190 -167 -226
-227 -67 -108 -73 -177 -23 -252 33 -49 114 -102 185 -118 30 -7 68 -17 85
-21 51 -16 256 -21 365 -9 160 17 335 43 378 56 17 5 21 3 17 -9 -6 -15 37
-64 91 -103 14 -11 53 -40 87 -65 108 -80 268 -157 405 -195 105 -28 207 -12
269 43 25 22 73 118 73 145 0 20 -30 111 -39 118 -3 3 -12 17 -20 32 -15 29
-204 224 -223 230 -7 3 10 15 38 28 180 84 284 136 319 158 26 17 52 25 78 24
53 -2 93 20 100 56 4 21 32 53 94 108 148 131 203 218 203 320 0 57 -15 89
-64 140 -64 65 -256 114 -448 114 -89 0 -330 -24 -402 -40 -23 -5 -69 -14
-103 -21 -46 -8 -63 -16 -63 -28 -1 -14 -2 -13 -11 2 -6 10 -29 29 -51 43 -43
27 -53 28 -190 8 -118 -17 -209 42 -263 171 -40 96 -73 141 -121 165 -49 24
-68 25 -117 0z m107 -75 c15 -14 41 -56 57 -93 16 -37 37 -80 46 -96 54 -98
176 -157 291 -141 31 4 79 8 107 9 45 1 51 -2 72 -33 38 -57 32 -75 -34 -92
-59 -15 -81 -35 -70 -64 7 -17 27 -17 115 1 58 12 33 -11 -35 -32 -60 -19 -68
-25 -71 -49 -3 -27 -3 -27 45 -22 26 2 58 8 71 12 17 6 22 3 22 -9 0 -9 -8
-16 -19 -16 -11 0 -23 -4 -26 -10 -3 -5 -19 -10 -34 -10 -33 0 -66 -32 -57
-56 5 -13 15 -15 54 -11 26 3 58 9 71 13 18 5 23 4 19 -7 -2 -8 -25 -19 -51
-26 -61 -15 -67 -20 -67 -49 0 -33 16 -37 75 -19 62 18 65 18 65 1 0 -10 -19
-19 -55 -26 -61 -13 -83 -35 -62 -64 13 -17 33 -15 113 9 14 4 23 2 27 -8 4
-11 -7 -18 -41 -27 -63 -16 -76 -23 -80 -48 -4 -27 25 -35 79 -22 62 16 81 17
86 4 2 -7 -11 -15 -29 -18 -18 -4 -45 -9 -61 -13 -28 -5 -46 -41 -32 -62 9
-15 47 -14 88 4 45 19 77 19 77 1 0 -7 7 -19 15 -26 35 -29 19 -40 -125 -86
-47 -15 -89 -31 -94 -36 -6 -4 -22 -8 -37 -8 -15 0 -30 -4 -33 -9 -3 -4 -22
-11 -43 -14 -21 -3 -47 -8 -58 -12 -19 -7 -19 -7 -1 7 18 14 17 16 -15 54 -19
21 -47 53 -64 69 -16 17 -55 60 -87 95 -89 103 -157 171 -238 241 -41 35 -77
66 -80 69 -3 3 -27 24 -55 45 -85 68 -225 202 -225 216 0 5 -4 9 -8 9 -5 0
-15 12 -23 28 -7 15 -24 41 -36 58 -13 17 -23 37 -23 45 0 8 -5 20 -11 26 -7
7 -2 17 19 32 17 11 35 21 42 21 15 0 141 83 187 123 20 18 59 53 88 79 78 72
108 81 149 43z m1412 -310 c115 -20 186 -54 223 -106 17 -23 31 -50 31 -61 0
-48 -59 -146 -131 -217 -98 -97 -112 -106 -175 -106 -43 0 -56 -4 -73 -24 -12
-13 -21 -35 -21 -48 0 -14 -6 -30 -12 -36 -23 -22 -399 -204 -402 -195 -1 2
-9 17 -18 35 -10 17 -18 41 -18 52 0 12 -9 29 -20 38 -11 10 -20 29 -20 44 0
14 -9 34 -20 44 -15 14 -19 26 -15 45 4 18 -1 34 -14 52 -15 19 -17 28 -8 37
9 9 8 17 -2 34 -8 12 -13 39 -13 60 1 21 -3 47 -8 57 -7 13 -7 21 0 25 14 8
13 52 -1 61 -7 4 -9 21 -6 42 4 19 1 44 -6 56 -6 12 -17 37 -24 56 -10 30 -10
33 2 16 11 -14 20 -17 42 -11 50 14 176 35 268 45 50 6 95 12 100 14 26 11
269 4 341 -9z m-1938 -57 c59 -120 216 -286 410 -433 39 -29 265 -258 352
-355 41 -46 82 -91 91 -100 14 -15 12 -18 -25 -28 -46 -12 -118 -24 -98 -15 6
2 12 9 12 15 0 24 -275 312 -390 408 -36 30 -67 57 -70 60 -3 3 -41 35 -85 72
-104 86 -187 175 -239 257 -64 101 -72 120 -60 139 10 16 50 41 65 42 3 0 20
-28 37 -62z m1382 -823 c-10 -12 5 -33 93 -125 69 -72 114 -129 131 -164 32
-66 32 -73 4 -125 -18 -35 -27 -41 -53 -41 -35 0 -161 43 -215 73 -78 43 -125
71 -130 77 -3 3 -23 19 -45 36 -76 55 -171 152 -155 157 58 17 287 91 295 96
13 8 68 28 79 30 5 0 3 -6 -4 -14z m-418 -137 c-12 -6 -21 -16 -19 -22 11 -33
293 -253 362 -282 33 -13 55 -34 37 -34 -17 0 -187 75 -247 109 -72 41 -142
90 -211 148 -28 24 -57 43 -65 43 -25 1 52 30 80 30 14 0 33 5 41 10 8 5 22 9
30 9 9 0 6 -5 -8 -11z"/>
<path d="M2211 2566 c-8 -9 -10 -100 -9 -292 l3 -279 150 -6 c94 -4 155 -3
163 4 6 5 12 22 12 38 l0 28 -117 3 -118 3 -2 249 c-1 136 -3 249 -5 251 -14
11 -68 12 -77 1z"/>
<path d="M3143 2573 c-10 -4 -13 -70 -13 -288 0 -308 0 -310 57 -303 l28 3 3
223 c2 197 4 221 17 208 8 -8 15 -17 15 -21 0 -4 22 -39 49 -78 74 -108 181
-275 181 -281 0 -3 10 -17 22 -31 15 -17 32 -25 54 -25 68 0 64 -18 64 302 l0
289 -46 -3 -45 -3 0 -195 c0 -108 -4 -201 -8 -208 -5 -8 -18 3 -39 33 -18 25
-32 48 -32 51 0 4 -46 78 -63 99 -4 6 -34 53 -67 105 -33 52 -63 100 -68 106
-7 12 -88 24 -109 17z"/>
<path d="M1752 2278 l3 -293 34 -3 c20 -2 37 2 42 10 5 7 9 57 9 111 l0 97 63
0 c150 1 240 108 208 249 -5 23 -20 54 -32 67 -43 46 -73 54 -206 54 l-123 0
2 -292z m193 211 c22 -6 47 -18 56 -26 38 -33 28 -128 -16 -157 -14 -9 -51
-19 -83 -22 l-59 -7 -7 98 c-4 68 -3 101 5 111 14 17 50 18 104 3z"/>
<path d="M2750 2538 c-7 -18 -18 -46 -25 -63 -7 -16 -20 -52 -29 -79 -15 -43
-31 -85 -66 -171 -45 -109 -81 -218 -76 -230 3 -9 18 -15 40 -15 36 0 56 20
70 70 4 14 14 40 22 58 l15 32 108 0 107 0 17 -35 c9 -20 17 -42 17 -50 0 -8
5 -15 10 -15 6 0 10 -8 10 -19 0 -27 24 -43 62 -39 48 4 45 25 -32 213 -5 11
-16 43 -26 70 -10 28 -21 55 -24 60 -4 6 -13 28 -20 50 -10 36 -22 65 -50 130
-5 11 -12 30 -15 43 -5 19 -13 22 -54 22 -46 0 -49 -2 -61 -32z m91 -185 c11
-35 25 -65 30 -68 5 -4 9 -17 9 -31 0 -23 -2 -24 -74 -24 l-75 0 15 48 c9 26
19 56 24 67 5 11 14 37 21 57 15 44 20 39 50 -49z"/>
<path d="M3740 2286 c0 -215 3 -286 13 -294 8 -6 65 -8 162 -3 l150 6 3 33 3
32 -108 0 c-59 0 -114 4 -121 9 -9 5 -12 31 -10 92 l3 84 98 3 97 3 0 39 0 40
-100 0 -100 0 0 80 0 80 103 0 c112 0 127 6 127 52 l0 28 -160 0 -160 0 0
-284z"/>
<path d="M4102 2533 l3 -38 83 -3 82 -3 0 -254 0 -255 28 0 c51 0 52 6 52 267
l0 243 73 0 c80 0 97 9 97 52 l0 28 -211 0 -210 0 3 -37z"/>
<path d="M2375 1888 c-28 -16 -35 -28 -35 -64 0 -33 16 -52 65 -77 24 -13 27
-17 13 -22 -9 -4 -25 -2 -37 4 -32 18 -41 13 -41 -23 0 -31 3 -34 36 -39 79
-13 128 16 122 75 -2 26 -11 38 -42 58 l-39 25 37 3 c30 3 36 7 36 26 0 12 -5
27 -12 34 -15 15 -76 15 -103 0z"/>
<path d="M2683 1886 c-4 -8 -7 -60 -5 -116 l3 -101 32 3 c29 3 32 6 35 41 3
34 6 37 33 37 27 0 29 -2 29 -40 0 -38 2 -40 30 -40 l30 0 0 116 0 115 -27 -3
c-25 -3 -28 -7 -31 -45 -3 -40 -5 -43 -33 -43 -26 0 -29 3 -29 33 0 18 -5 38
-12 45 -16 16 -45 15 -55 -2z"/>
<path d="M3112 1887 c-49 -28 -72 -103 -49 -160 20 -46 42 -60 97 -61 40 -1
54 4 79 28 55 52 50 144 -9 184 -36 24 -83 28 -118 9z"/>
<path d="M3455 1878 c-3 -13 -5 -63 -3 -113 l3 -90 64 -3 c70 -3 87 5 76 37
-5 16 -15 21 -41 21 -19 0 -34 5 -34 10 0 6 16 10 35 10 32 0 35 2 35 30 0 28
-3 30 -35 30 -19 0 -35 5 -35 10 0 6 16 10 36 10 34 0 35 1 32 33 -3 32 -3 32
-65 35 -58 3 -63 1 -68 -20z"/>
<path d="M3805 1888 c-63 -36 -55 -109 15 -138 35 -15 41 -36 8 -25 -65 20
-68 19 -68 -14 0 -38 34 -55 91 -46 54 9 73 27 73 68 0 36 -32 76 -61 77 -7 0
-13 5 -13 10 0 6 16 10 35 10 31 0 35 3 35 25 0 40 -68 60 -115 33z"/>
</g>
</svg>
